<svg width="436" height="436" viewBox="0 0 436 436" fill="none" xmlns="http://www.w3.org/2000/svg">
<path d="M267.777 163.501L261.491 327.001M174.509 327.001L168.223 163.501M349.309 105.186C355.522 106.13 361.698 107.129 367.875 108.201M349.309 105.186L329.907 357.393C329.115 367.662 324.476 377.253 316.918 384.248C309.36 391.244 299.439 395.129 289.141 395.126H146.859C136.561 395.129 126.64 391.244 119.082 384.248C111.524 377.253 106.885 367.662 106.093 357.393L86.6913 105.186M349.309 105.186C328.342 102.016 307.267 99.6101 286.125 97.9734M86.6913 105.186C80.4783 106.112 74.3017 107.111 68.125 108.183M86.6913 105.186C107.658 102.016 128.733 99.6102 149.875 97.9734M286.125 97.9734V81.3327C286.125 59.8961 269.593 42.0201 248.157 41.3479C228.057 40.7055 207.943 40.7055 187.843 41.3479C166.407 42.0201 149.875 59.9142 149.875 81.3327V97.9734M286.125 97.9734C240.776 94.4686 195.224 94.4686 149.875 97.9734" stroke="#FB0505" stroke-width="27.25" stroke-linecap="round" stroke-linejoin="round"/>
</svg>
